<?xml version="1.0" encoding="UTF-8"?>
<svg id="a" data-name="Layer 1" xmlns="http://www.w3.org/2000/svg" viewBox="0 0 335.2 335.2">
  <defs>
    <style>
      .c, .d {
        fill: #000;
      }

      .c, .e, .f {
        stroke: #fff;
        stroke-miterlimit: 10;
      }

      .c, .f {
        stroke-width: 2.15px;
      }

      .d, .g, .h {
        stroke-width: 0px;
      }

      .e {
        stroke-width: 3.22px;
      }

      .e, .g {
        fill: #fff;
      }

      .f {
        fill: none;
      }

      .h {
        fill: #d11402;
      }
    </style>
  </defs>
  <g id="b" data-name="Calque 1">
    <circle class="d" cx="167.6" cy="167.6" r="167.6"/>
  </g>
  <g>
    <g>
      <g>
        <path class="c" d="M313.8,111c-2.5-16.5-39.6-20.2-53.4-20.2-14.9.1-47.5,1.1-57.9,13.6-1.1,1.7-1.3,2.9-1.4,4.3.1,6.5.2,74.1.6,97.4,1.6,8.8,11.3,13.6,19,16.5,16.1,5.7,33.3,6,50.1,4.3,10.5-.9,21.1-3,30.8-7.4,2.8-1.2,5.6-2.8,7.5-5.2,1.1-1.4,1.7-3,1.9-4.7.3-7.6,2.3-74.5,2.8-98.5v-.1Z"/>
        <path class="g" d="M238.5,91.6c19.5-1.9,39.2-1.6,57.5,4.4,18.3,6.2,26.9,18.6,3.2,26-24.8,6.9-56.6,8-80.7.2-8.3-2.5-25.3-12-13.4-21,9.9-6.8,21.2-7.9,33.2-9.6h.2ZM271.8,121.1c7.9-1.2,17.9-2.2,23.5-7.5,4.7-5.5-3.4-10.7-8-12.7-16.8-7.3-40.2-6.8-58.2-2.2-12.4,3.3-15.7,10.7-3.1,17.3,14.4,6.6,29.8,6.7,45.5,5.1"/>
      </g>
      <path class="g" d="M265.1,124.8c3.5-.4,6.3-1,8.4-1.6,2.1-.7,3.5-1.4,4.3-2.2.8-.8,1.1-1.7.9-2.5-.2-.9-.9-1.8-1.9-2.6-1-.8-2.3-1.6-4-2.3-1.7-.7-3.7-1.3-5.9-1.7-2.3-.5-4.8-.8-7.7-.9-2.8-.1-5.9,0-9.3.3-3.2.3-5.8.8-7.8,1.4-2.1.6-3.6,1.3-4.6,2.1-1,.8-1.5,1.7-1.5,2.6s.6,1.9,1.6,2.9c.9.8,2.2,1.6,3.8,2.3,1.6.7,3.6,1.3,6,1.8,2.3.5,5,.8,8,.9,2.9.1,6.2-.1,9.7-.5"/>
      <path class="g" d="M301.6,210.4c3.2-4.1,3-12.6.4-12.5-3.1.2-4,5.4-4.3,7.7-.3,1.6-.5,3.5-1.4,4.5-.5.6-1.8,1.2-2.6.3-1.1-1-1.3-5.5.8-7.9.1-.1.2-.2.2-.3-.2-.3-.4-.8-.6-1.1-4.1,4.4-2.9,11.4.2,11.4,3.5,0,4.1-4.3,4.5-7.2,1.2-8.1,3.6-5.4,3.7-5.3.6,1.1,1.2,6-1.3,9.3l.4,1.1"/>
      <path class="g" d="M291.8,200c.1,0,.2-.1.4-.1s.2-.1.3-.1.2-.1.3-.1.2-.1.3-.1l.1-5.5c1.1-.3,2.1-.6,3.1-.9,1-.3,1.9-.7,2.8-1s1.7-.7,2.5-1.1c.8-.4,1.5-.7,2.2-1.1v-1.5c-.7.4-1.4.7-2.2,1.1s-1.6.7-2.5,1-1.8.7-2.8,1-2,.6-3.1.9l.1-5.5c-.1,0-.2.1-.3.1s-.2.1-.3.1-.2.1-.4.1-.2.1-.4.1c.1,4.2,0,8.4-.1,12.6"/>
      <path class="g" d="M292.1,185c.8-.2,1.5-.4,2.2-.6.7-.2,1.4-.4,2.1-.6.7-.2,1.3-.4,2-.7.6-.2,1.2-.4,1.8-.7,5.4-2.5,5.1-11.7,2.5-12.6-.8-.3-1.7,0-2.3.2-.6.2-1.2.4-1.8.7-.6.2-1.3.4-2,.6-.7.2-1.4.4-2.1.6-.7.2-1.5.4-2.2.6v1.6c.8-.2,1.5-.4,2.2-.6.7-.2,1.4-.4,2.1-.6.7-.2,1.3-.4,2-.6.6-.2,1.2-.4,1.8-.7,4.4-1.5,3.3,5,2.3,6.9-.8,1.6-1.9,2.1-2.5,2.4-.6.2-1.2.5-1.8.7-.6.2-1.3.4-2,.7-.7.2-1.4.4-2.1.6-.7.2-1.5.4-2.2.6v1.5"/>
      <path class="g" d="M299.4,154.4c3.9-1.2,4.3,2,4.4,4.5l-.1,4c-.7.3-1.4.6-2.1.9-.7.3-1.5.6-2.3.9-.8.3-1.7.6-2.6.9-.9.3-1.8.5-2.8.8l.1-4c.3-6.2,5.2-7.9,5.4-8M292.4,168.4c1.3-.3,2.5-.6,3.6-1,1.1-.3,2.2-.7,3.2-1,1-.4,2-.7,2.9-1.1.9-.4,1.7-.8,2.5-1.2.2-8.5.2-9.2-1.3-10.8-1.3-1.3-4.5-.9-7.3,1.8-3.1,3-3.3,6.3-3.4,7.7l-.2,5.6"/>
      <path class="g" d="M292.7,151.4c1.3-.3,2.5-.6,3.6-1,1.1-.3,2.2-.7,3.2-1,1-.4,2-.7,2.9-1.1.9-.4,1.7-.7,2.5-1.1v-1.6c-.8.4-1.6.8-2.5,1.1-.9.4-1.9.7-2.9,1.1-1,.4-2.1.7-3.2,1s-2.3.6-3.6,1v1.6"/>
      <path class="g" d="M305.7,135.4c.8,3.1-1.8,6.8-5.8,8.1s-7.9-.1-8.7-3.2c-.8-3.1,1.8-6.8,5.8-8.1,4-1.4,7.9.1,8.7,3.2Z"/>
    </g>
    <path class="h" d="M304.7,135.8c.7,2.7-1.6,5.8-5,6.9-3.4,1.1-6.7-.1-7.4-2.8-.7-2.7,1.6-5.8,5-6.9,3.4-1.1,6.7.2,7.4,2.8Z"/>
  </g>
  <g>
    <path class="c" d="M196.3,106l.2-7.8c-2.7-3-6.3-5.4-10.6-7.3s-9.2-3.3-14.7-4.2c-5.5-.9-11.5-1.4-17.8-1.5s-13.1.3-20,1c-6.7.7-12.5,1.7-17.3,3s-8.6,2.8-11.3,4.5c-2.7,1.7-4.3,3.6-4.6,5.7-.1.5-.1,1,0,1.5h0v-.7l.4,102.7c0,.5.1,1.1.2,1.6s.3,1.1.5,1.6.5,1.1.9,1.6c.4.6.8,1.1,1.3,1.7.4.5.9,1,1.4,1.4.1.1.2.2.3.3.5.4,1,.9,1.5,1.3,0,0,.1,0,.1.1.1,0,.1.1.2.1.5.4,1,.8,1.6,1.1.1.1.2.1.3.2.6.4,1.3.8,1.9,1.2.1,0,.1.1.2.1s.2.1.3.1c.7.4,1.4.7,2.1,1.1h0s.1,0,.1.1c.7.3,1.5.7,2.2,1,.1,0,.2.1.3.1s.1.1.2.1c.8.3,1.6.6,2.4.9.2.1.3.1.5.1.8.3,1.6.5,2.4.7.1,0,.2.1.2.1h.2c.1,0,.2.1.3.1.2.1.5.1.7.2.3.1.5.1.8.2.1,0,.2.1.3.1h.2c.4.1.8.2,1.3.3.1,0,.2,0,.3.1.1,0,.3.1.4.1.2,0,.4.1.6.1.4.1.7.1,1.1.2h.1c.3.1.6.1.9.2.4.1.8.1,1.1.2.4.1.8.1,1.1.2.3.1.7.1,1,.2h0c.3,0,.7.1,1,.1.4,0,.7.1,1.1.1s.7.1,1.1.1.7.1,1.1.1h.3c.3,0,.5,0,.8.1.4,0,.7.1,1.1.1s.7.1,1.1.1.8,0,1.1.1h11.7c.5,0,1,0,1.5-.1.5,0,1,0,1.5-.1.3,0,.7,0,1-.1h.8c.6,0,1.3-.1,1.9-.1.6-.1,1.3-.1,1.9-.2.2,0,.4,0,.7-.1h.3c.3,0,.6-.1.9-.1.4,0,.7-.1,1.1-.1s.7-.1,1.1-.1.7-.1,1.1-.1.7-.1,1.1-.1c.6-.1,1.1-.2,1.7-.2.6-.1,1.1-.2,1.7-.3.5-.1,1.1-.2,1.6-.3h0c.6-.1,1.1-.2,1.7-.3.6-.1,1.1-.2,1.6-.4.5-.1,1.1-.2,1.6-.3.4-.1.8-.2,1.2-.3.1,0,.2,0,.3-.1.1,0,.3-.1.4-.1.4-.1.7-.2,1.1-.3.4-.1.8-.2,1.2-.3s.7-.2,1.1-.3c.2-.1.5-.1.7-.2.2,0,.3-.1.5-.1.3-.1.7-.2,1-.3.4-.1.7-.2,1.1-.4.2-.1.3-.1.5-.2.2-.1.3-.1.5-.2.2-.1.4-.1.6-.2.2-.1.3-.1.5-.2.3-.1.6-.2.9-.4.3-.1.7-.3,1-.4.3-.1.6-.2.9-.4.2-.1.3-.1.5-.2.2-.1.4-.2.6-.3.2-.1.4-.2.5-.3.1,0,.2-.1.3-.1.3-.2.6-.3.9-.5.1,0,.2-.1.3-.1h.2c.4-.2.8-.5,1.2-.7,0,0,.1,0,.1-.1.1-.1.2-.1.3-.2.2-.1.5-.3.7-.4.1-.1.2-.2.3-.2l.1-.1.1-.1c.2-.1.4-.3.6-.4.1-.1.2-.2.4-.3l.1-.1s.1,0,.1-.1c.2-.1.3-.3.5-.4l.1-.1.1-.1.1-.1.1-.1,2.2-103.6-4.9-.5Z"/>
    <path class="g" d="M133.4,86.3c6.9-.7,13.6-1.1,20-1,6.3.1,12.3.6,17.8,1.5s10.5,2.3,14.7,4.2c4.3,1.9,7.9,4.3,10.6,7.3l-71.4,7.9c1.6,1.1,3.7,2,6.2,2.7s5.5,1.3,8.7,1.7c3.3.4,6.8.5,10.6.5s7.8-.3,11.8-.7c2.3-.3,4.6-.6,6.8-1,2.3-.4,4.4-.9,6.5-1.4,2-.5,3.8-1.1,5.3-1.7s2.7-1.2,3.4-1.9l16.6,2.5c-1.3,1.1-3,2.1-5.2,3.1s-4.8,1.9-7.6,2.7c-2.9.8-6,1.5-9.3,2.1s-6.7,1.1-10.2,1.5c-7.4.9-14.6,1.2-21.5,1.2-6.8-.1-13.2-.6-19-1.5-5.7-.9-10.9-2.2-15.1-3.9-4.3-1.7-7.7-3.7-10.1-6-2.3-2.2-3.2-4.4-2.9-6.4.3-2,1.9-3.9,4.6-5.7,2.7-1.7,6.5-3.2,11.3-4.5,4.9-1.5,10.7-2.5,17.4-3.2ZM120,101l53.1-5.8c-1.6-1.1-3.6-2-5.9-2.6-2.3-.7-4.9-1.2-7.8-1.5-2.9-.3-6-.5-9.3-.4-3.3,0-6.8.3-10.5.7-3.3.4-6.3.8-8.9,1.4-2.6.6-4.8,1.3-6.6,2.1-1.8.8-3.1,1.8-3.8,2.8-.6,1-.8,2.1-.3,3.3"/>
  </g>
  <g>
    <path class="c" d="M253.4,172.3c-8.8-7.7-18-15-26.9-22.6-6.3-4.9-12.2-11-19.2-15-13.6-7.8-30.7-7.5-45-1.7-5,2.4-10,4.7-14.3,8.4-12.4,10.1-20.5,25.1-21.5,41.1-1.1,14.1,2.2,29.1,12.5,39.2,9,10,17.5,19.6,26.5,29.4,2.6,2.7,5.4,6.2,8.3,8.6,10.6,9.1,24.2,11,38.9,9.2,16-1.8,30.2-9.6,40.6-22.1,1.1-1.2.9-1.6.9-2,.1-6.1.8-38.4.9-40.9"/>
    <g>
      <path class="g" d="M203.2,135.2c-2.2-.6-5.3-1.4-10-1.8,1.1.9,2.5,2.1,3.6,3.1.8.7,1.9,1.6,2.7,2.3,2.4.2,5.6.5,10.1,1.8-1.1-.9-2.6-2.2-3.7-3.1-.5-.5-1.3-1.1-1.8-1.5-.3-.3-.6-.7-.9-.8"/>
      <path class="g" d="M222.7,151.6c-2.3-.6-5.4-1.4-10.2-1.8,2.2,1.9,4.5,3.8,6.7,5.7,2.4.2,5.8.5,10.3,1.8-.6-.5-1.4-1.2-2-1.7-1.6-1.3-2.9-3-4.8-4"/>
      <g>
        <path class="g" d="M144.5,227.1c.2.3.4.6.7.9.2.3.5.6.7.9.2.3.5.6.7.9.3.3.5.6.8.9l-5.8-6.4c-.3-.3-.5-.6-.8-.9-.2-.3-.5-.6-.7-.9-.2-.3-.5-.6-.7-.9-.2-.3-.5-.6-.7-.9l5.8,6.4"/>
        <path class="g" d="M143.1,155c-.3.4-.7.9-1,1.3-.3.4-.6.9-.9,1.3-.3.5-.6.9-.9,1.4-.3.5-.6.9-.9,1.4l5.8,5.8c.3-.5.6-.9.9-1.4.3-.5.6-.9.9-1.4.3-.5.6-.9,1-1.4.3-.4.7-.9,1-1.3l-5.9-5.7"/>
        <path class="g" d="M153.7,144.7c-.5.3-.9.7-1.3,1-.4.3-.9.7-1.3,1.1s-.8.7-1.3,1.1c-.4.4-.8.8-1.2,1.1l5.9,5.7c.4-.4.8-.8,1.2-1.1.4-.4.8-.7,1.3-1.1.4-.4.9-.7,1.3-1.1s.9-.7,1.3-1l-5.9-5.7"/>
        <path class="g" d="M167.2,137.2c-.6.2-1.1.4-1.7.7-.5.2-1.1.5-1.6.7s-1.1.5-1.6.8-1,.5-1.6.8l6.1,5.6c.5-.3,1-.5,1.6-.8.5-.3,1.1-.5,1.6-.8.5-.2,1.1-.5,1.6-.7.6-.2,1.1-.5,1.7-.7l-6.1-5.6"/>
        <path class="g" d="M183.6,133.3c-.7.1-1.3.2-2,.2-.7.1-1.3.2-1.9.3-.6.1-1.3.2-1.9.3-.6.1-1.3.3-1.9.4l6.2,5.5c.6-.1,1.3-.3,1.9-.4.6-.1,1.3-.2,1.9-.3.6-.1,1.3-.2,2-.3s1.3-.2,2-.2l-6.3-5.5"/>
        <path class="g" d="M162.5,247c.2.3.5.6.7,1,.2.3.5.6.7.9.2.3.5.6.8.9.3.3.5.6.8.9l-6.2-6.8c-.3-.3-.5-.6-.8-.9-.3-.3-.5-.6-.8-.9-.2-.3-.5-.6-.7-.9-.2-.3-.5-.6-.7-1l6.2,6.8"/>
        <path class="g" d="M148.4,215c0,.5.1,1.1.1,1.6s.1,1,.1,1.6c.1.5.1,1,.2,1.6.1.5.1,1,.2,1.5l6.1,6.6c-.1-.5-.2-1-.2-1.5-.1-.5-.1-1-.2-1.6-.1-.5-.1-1.1-.1-1.6s-.1-1.1-.1-1.6l-6.1-6.6"/>
        <path class="g" d="M149.3,200c-.1.6-.2,1.1-.3,1.7-.1.6-.2,1.1-.2,1.7-.1.6-.1,1.1-.2,1.7-.1.6-.1,1.1-.1,1.7l6.1,6.5c0-.6.1-1.2.1-1.7.1-.6.1-1.1.2-1.7.1-.6.1-1.1.2-1.7.1-.6.2-1.1.3-1.7l-6.1-6.5"/>
        <path class="g" d="M153.5,185.6c-.2.5-.4,1-.6,1.6-.2.5-.4,1-.6,1.6-.2.5-.4,1.1-.6,1.6-.2.5-.4,1.1-.5,1.6l6.2,6.3c.2-.5.3-1.1.5-1.6s.4-1.1.6-1.6c.2-.5.4-1.1.6-1.6.2-.5.4-1.1.7-1.6l-6.3-6.3"/>
        <path class="g" d="M161.2,172.6c-.3.4-.7.9-1,1.4s-.7.9-1,1.4-.6.9-.9,1.4c-.3.5-.6,1-.9,1.4l6.2,6.2c.3-.5.6-1,.9-1.4.3-.5.6-1,.9-1.4.3-.5.7-.9,1-1.4s.7-.9,1-1.4l-6.2-6.2"/>
        <path class="g" d="M172.1,161.9c-.5.3-.9.7-1.4,1.1-.5.4-.9.7-1.3,1.1s-.9.8-1.3,1.1c-.4.4-.8.8-1.3,1.2l6.4,6.1c.4-.4.8-.8,1.3-1.2.4-.4.9-.8,1.3-1.2.4-.4.9-.7,1.4-1.1.5-.4.9-.7,1.4-1.1l-6.5-6"/>
        <path class="g" d="M186,154.1c-.6.2-1.1.5-1.7.7-.6.2-1.1.5-1.7.7-.6.3-1.1.5-1.6.8s-1.1.5-1.6.8l6.5,5.9c.5-.3,1.1-.6,1.6-.8.5-.3,1.1-.5,1.7-.8.6-.3,1.1-.5,1.7-.8.6-.2,1.1-.5,1.7-.7l-6.6-5.8"/>
        <path class="g" d="M202.9,150c-.7.1-1.4.2-2,.3-.7.1-1.3.2-2,.3s-1.3.2-2,.4c-.6.1-1.3.3-1.9.4l6.6,5.9c.6-.1,1.3-.3,1.9-.4.7-.1,1.3-.3,2-.4.7-.1,1.3-.2,2-.3s1.4-.2,2.1-.3l-6.7-5.9"/>
      </g>
    </g>
    <path class="e" d="M215.4,160.9c3.5-.4,6.9-.5,10.4-.2,3.4.3,6.8.9,10,1.8,3.2.9,6.4,2.2,9.3,3.9,3,1.6,5.7,3.6,8.3,6l-10.5,11.9c-1.8-1.6-3.8-3-6-4.1s-4.5-2-6.9-2.7-4.9-1.1-7.4-1.3-5-.1-7.4.2c-6.1.7-11.6,2.5-16.4,5.2-4.8,2.7-8.9,6.2-12.3,10.3-3.3,4.1-5.9,8.8-7.7,13.8-1.7,5-2.6,10.4-2.6,15.9,0,4.7.7,9.3,2.1,13.5,1.5,4.2,3.7,7.9,6.8,10.9s7,5.3,11.8,6.6,10.5,1.7,17.1.8c2.2-.3,4.3-.7,6.5-1.3,2.1-.6,4.2-1.4,6.3-2.3,2.1-1,4.1-2.2,6.2-3.6,2-1.4,4.1-3.1,6.2-5.1l.4-20.6-28.6,3.7.2-14.7,43.8-5.5-1.1,41.6c-2.6,3.1-5.3,5.9-8.2,8.5-2.9,2.5-6,4.8-9.3,6.7-3.3,1.9-6.8,3.6-10.6,4.9s-7.8,2.3-12.1,2.9c-9.4,1.3-17.4.9-24.3-.9-6.9-1.8-12.5-4.9-16.9-9.1-4.4-4.2-7.7-9.4-9.9-15.4-2.2-5.9-3.2-12.5-3.2-19.4,0-7.5,1.2-15,3.7-21.9,2.4-7,6-13.5,10.8-19.3,4.7-5.7,10.6-10.6,17.5-14.4,7.1-3.7,15.1-6.3,24-7.3Z"/>
  </g>
  <g>
    <g>
      <g>
        <path class="c" d="M139.9,203.4c-1.1-4-3.5-7.9-6.6-10.7-1.1-1-3.4-3.1-5-4.6-.5-.5-.8-.8-.8-1.2.4-1.4,2.5-2.2,3.4-3.3,4.5-4.3,7.2-9.9,7.7-16.1.7-8.1-1.8-16.9-8.5-22-4.8-4-10.9-9.2-15.2-12.9-6.6-5.4-16.2-13.9-23-19.3-7.7-5.3-17.7-5.8-26.5-4.7-12.7,1.4-32.2,3.4-43.2,4.6-1.1,0-.7.2-.8,1,.2,20.5.5,94.9.6,97.9,8.8,10.3,23.8,27.3,33,37.9,3.7.2,7.6-1,11.3-1.3,11.2-1.6,22.2-3,33.5-4.6,6-.8,11.9-1.9,17.4-3.9,15.5-5,26.8-19.9,22.7-36.6v-.2Z"/>
        <path class="g" d="M125,188.4c.1.3.5.5,1.2.7,5.7,1.6,10.1,5.8,12.4,11.1,5.8,13.4-1.5,29.8-14,36.5-10.9,6.3-23.8,7.2-36.1,8.9-10.4,1.4-20.9,2.8-31.4,4.3-1,.1-1.7.4-2.2.1v-3.9c0-18.8.2-96.9.2-99.9q0-.1.1-.1c.1,0,.6-.1,1.4-.2,5.8-.7,28.6-3.3,40.2-4.6,7.2-.9,13.9-1.8,20.9-.6,15.2,2.3,22.7,14.5,20.3,29.2-1.2,7.2-5.9,13.4-11.9,17.3-.3.2-1.2.8-1.1,1.2h0ZM103.1,228.6c7.2-1.1,15.1-3.8,19.3-10.1,7.2-13.4-5.5-21.4-18-20.1-10.2,1.2-20.4,2.6-30.7,3.9-.8.1-1.3.1-1.7.5-.3.6,0,1.4-.1,2.7,0,5.8-.3,20.9-.1,27.2,3-.2,27.9-3.7,31.2-4.1M72.2,159.4c-.2,7.3-.2,19-.2,27,0,1.6-.3,1.4,1.1,1.2,8-1,16.8-2.1,24.7-3.1,5.6-.7,7.9-.8,12.6-2.2,14.4-3.8,17.1-22.1,1.6-26.4-2.6-.7-5.9-.6-8.6-.4-2,.2-12.6,1.5-20.9,2.4-5.4.9-9.4,1.3-10.3,1.5"/>
      </g>
      <path class="f" d="M21.4,113.4c1.7,1.7,34.5,33,36.2,34.7"/>
    </g>
    <path class="g" d="M125.4,185.5c.4.3.8.8,1.3,1.3,1.4,1.5,3.5,3.5,3.6,3.7,0,0,0,.1-.1.1-1,.4-2.4,1.1-3.4,1.4-1.8-.5-7.8-2.3-8.4-2.5-.1-.1.1-.2.3-.4,1-.9,2.7-2.4,3.7-3.2.4-.4.5-.4,1.3-.4.6.1,1.4,0,1.7,0h0Z"/>
  </g>
</svg>